<svg version="1" xmlns="http://www.w3.org/2000/svg" width="682.667" height="682.667" viewBox="0 0 512.000000 512.000000"><path d="M155 70.1c-19.1 8.4-31.8 13-46.3 16.5-16.2 4-20.2 5.5-24.1 9.2-6.2 5.9-7.1 12.6-2.5 19.6 1.7 2.6 3 4.8 2.8 5-3.3 3.1-16.8 11.1-22.8 13.6-9 3.6-15.3 8.5-18.1 14-1.1 2.2-2.7 8.1-3.5 13.2-.9 5.1-4.1 17.7-7.1 28-12.4 42.3-13.1 54.5-4.3 72 6.9 13.7 18.2 28.3 40.5 52.3l12.6 13.6-4 12.7c-9.1 28.1-12 45.9-8.9 53.5 2.8 6.6 5.1 7 35.2 6.4 14.3-.4 27.4-.9 29-1.2 2.9-.6 3-.5 5.3 6.2 5.6 16.1 16.4 28.2 30.9 34.4 10.2 4.4 20 6 54.8 8.9 22.2 1.9 33-1.3 40.9-11.9 10.9-14.6 13.6-15.4 17.6-4.6 3.5 9.4 5.4 12 10.4 14.5 7 3.3 19.4 2.3 28.6-2.5 5.5-2.9 16.1-14.1 22.8-24.5 15.9-24.1 36.1-73.7 47.8-117.1l2.9-10.7 8-.7c23.4-1.9 40.3-10 55.9-26.5 8.7-9.3 16.3-21 24.7-38 6.4-12.8 6.6-13.5 4.6-14.3-2.7-1-23.7-6.2-31-7.7-3.8-.8-5.7-1.6-5.3-2.3 12.8-29.7 15.9-47 15.4-85.6-.2-13.2-.6-24.2-.9-24.5-1.6-1.6-59.9 13.4-87.2 22.5-21.3 7.1-32.9 12.3-39.9 17.9-2.8 2.2-5.5 4-6 4-1.6 0-12.6-7.9-21.9-15.7-9.6-8-17.9-16.9-25.6-27.3-9.8-13.1-18.8-17.4-40.8-19.1-16.2-1.3-21.8-.6-30.3 3.7-7.8 3.9-8.2 4-8.2 1.5 0-5.3-7.9-10.1-21-12.5-14.1-2.7-17.9-2.3-31 3.5z"/></svg>